<svg id="Layer_1" data-name="Layer 1" xmlns="http://www.w3.org/2000/svg" xmlns:xlink="http://www.w3.org/1999/xlink" viewBox="0 0 68 60"><defs><style>.cls-1{fill:#8d735e;}.cls-2{fill:#7e6454;}.cls-3{fill:#d0b089;}.cls-4{fill:#232222;}.cls-5{fill:url(#New_Gradient_Swatch_2);}.cls-6{fill:#357d69;}</style><linearGradient id="New_Gradient_Swatch_2" x1="37.69" y1="78.2" x2="39.7" y2="120.7" gradientTransform="translate(-3.04 -13.34) rotate(1.69)" gradientUnits="userSpaceOnUse"><stop offset="0.4" stop-color="#8d735e"/><stop offset="0.69" stop-color="#8b715d"/><stop offset="0.83" stop-color="#836b58"/><stop offset="0.94" stop-color="#766151"/><stop offset="1" stop-color="#6c594b"/></linearGradient></defs><title>Artboard 1</title><path id="_Path_" data-name="&lt;Path&gt;" class="cls-1" d="M14.86,58.3s-26.63-15.56-8-42.46c0,0,6.61-9.28,18.69-9.68,0,0,23.77-3.64,33.7,9.5C69.36,29,72.92,45.89,52,59.1A44.67,44.67,0,0,1,14.86,58.3Z"/><path id="_Path_2" data-name="&lt;Path&gt;" class="cls-1" d="M23.81,6.88S3.6-13.2,7.84,15.24"/><path id="_Path_3" data-name="&lt;Path&gt;" class="cls-2" d="M10.08,14.74C8.22,12.41,8.48,4,11.75,2.93a3.67,3.67,0,0,1,2.55.75s7.11,6.09,3.38,9.68C14.47,16.46,11.28,16.25,10.08,14.74Z"/><path id="_Path_4" data-name="&lt;Path&gt;" class="cls-2" d="M10.08,14.74l.21-.16a5.13,5.13,0,0,1-.84-2.08,13.31,13.31,0,0,1-.26-3A12.43,12.43,0,0,1,9.9,5.44,5.22,5.22,0,0,1,10.72,4a2.44,2.44,0,0,1,1.11-.79l-.08-.25,0,.26h.33a4.06,4.06,0,0,1,1,.14,2.55,2.55,0,0,1,1,.55h0a20.13,20.13,0,0,1,2.31,2.45,12,12,0,0,1,1.44,2.24A5.33,5.33,0,0,1,18.5,11a3.07,3.07,0,0,1-1,2.22,7.24,7.24,0,0,1-5,2.37,2.87,2.87,0,0,1-2.24-1l-.21.16-.21.16a3.4,3.4,0,0,0,2.64,1.16,7.74,7.74,0,0,0,5.35-2.51A3.62,3.62,0,0,0,19,11a5.88,5.88,0,0,0-.69-2.69,15.12,15.12,0,0,0-2.4-3.36,19.13,19.13,0,0,0-1.46-1.43l-.17.2.18-.19a3.09,3.09,0,0,0-1.26-.68,4.63,4.63,0,0,0-1.09-.15c-.23,0-.38,0-.4,0h-.05a3,3,0,0,0-1.34.95A6.83,6.83,0,0,0,9.1,6.22a14.14,14.14,0,0,0-.43,3.26,13.87,13.87,0,0,0,.27,3.12,5.61,5.61,0,0,0,.94,2.3Z"/><path id="_Path_5" data-name="&lt;Path&gt;" class="cls-2" d="M5.08,22.47S-6.3,43.3,14.51,55.05C14.51,55.05-1.93,41,5.08,22.47Z"/><path id="_Path_6" data-name="&lt;Path&gt;" class="cls-1" d="M43.75,7.42S64.62-12,59.43,16.31"/><path id="_Path_7" data-name="&lt;Path&gt;" class="cls-2" d="M57.49,15.73c1.93-2.27,2-10.69-1.28-11.86a3.66,3.66,0,0,0-2.57.66s-7.31,5.85-3.7,9.57C53,17.3,56.24,17.2,57.49,15.73Z"/><path id="_Path_8" data-name="&lt;Path&gt;" class="cls-2" d="M57.49,15.73l.2.17a5.58,5.58,0,0,0,1-2.2,13.82,13.82,0,0,0,.38-3,13.12,13.12,0,0,0-.58-4.34,6,6,0,0,0-.86-1.69,3,3,0,0,0-1.33-1h-.06l-.35,0a4.41,4.41,0,0,0-1.11.11,3,3,0,0,0-1.32.64l.17.2-.16-.21a20.34,20.34,0,0,0-2.36,2.31A13.45,13.45,0,0,0,49.47,9a6,6,0,0,0-.8,2.66,3.62,3.62,0,0,0,1.07,2.66A7.78,7.78,0,0,0,55,17a3.41,3.41,0,0,0,2.72-1.08l-.2-.17-.2-.17a2.89,2.89,0,0,1-2.31.89,7.27,7.27,0,0,1-4.85-2.53,3.07,3.07,0,0,1-.93-2.29,5.44,5.44,0,0,1,.74-2.41,14.5,14.5,0,0,1,2.42-3.15c.41-.41.77-.74,1-1l.31-.27.09-.07,0,0h0a2.57,2.57,0,0,1,1.1-.52,4,4,0,0,1,1-.1h.29l0-.26-.09.24A2.45,2.45,0,0,1,57.22,5a6.34,6.34,0,0,1,1,2.49,13.66,13.66,0,0,1,.29,3.21,13.25,13.25,0,0,1-.37,2.91,5.14,5.14,0,0,1-.89,2Z"/><path id="_Path_9" data-name="&lt;Path&gt;" class="cls-3" d="M57.88,37.46c.23,8.85-6.53,16.53-16.09,19.36A28.4,28.4,0,0,1,34.46,58C24.2,58.24,15.3,53.11,11.7,45.67c-.1-.22-.2-.43-.3-.65A16.83,16.83,0,0,1,10,38.72c-.29-11,10.68-20.46,23.9-20.81a27.26,27.26,0,0,1,7,.72C50.66,21,57.64,28.52,57.88,37.46Z"/><ellipse class="cls-4" cx="22.34" cy="44.65" rx="3.42" ry="2.28" transform="translate(-23.79 63.73) rotate(-85.89)"/><ellipse class="cls-4" cx="45.18" cy="44.65" rx="3.42" ry="2.28" transform="translate(-2.58 86.52) rotate(-85.89)"/><path class="cls-4" d="M13.65,48.63s-2.17-13,1.29-13.34c0,0,1.82,1.38,3,1.35.23,0-.82-7.05,3-9.27,0,0,13.56,5.2,15.11,2.1-.46-.26-5.45-2.1-5.26-4.28C30.87,24,41.41,24,46.07,34.25c.78.43,2-1.51,2.22-4.33.5-5.29,4.34,8.87,4.41,9.08s1.12-.31,2-1.62.6,8.49.42,9.49S58.56,42.7,58,36.08,51.52,22.52,46.37,20.44c-4.88-2-13.14-5.52-25.82,1C7.07,28.36,10.21,42.6,10.28,42.85,10.69,44.46,13.08,48.5,13.65,48.63Z"/><path class="cls-5" d="M1.35,65.56c0-2.83,10.61-10,10.92-10,3,0,3.38,2.1,7.87,3.91,10.81,4.35,28.8-.76,31.33-1.33a3.66,3.66,0,0,1,1.23.1c1.4.88,9.17,6.4,10.64,11.53,0,.14-8.89,27.48-6.83,31.77,2.32,4.85-1.22,11.64-11.44,11.53-8-.08-24.82.11-31.26-1.23C6.93,110.37,1.35,65.56,1.35,65.56Z"/><path class="cls-6" d="M54.81,35.19c-3.42-.94-4-1.57-7.37-1.63-6.85-.12-9.23,3-9.23,3H30.14s-2.38-3.14-9.23-3c-3.37.06-4,.69-7.37,1.63-.79.22-3.39.46-3.45.87,0,0-.12,1.39-.16,1.86s0,1.78,0,1.78a3.54,3.54,0,0,1,.47,0c.83.17,1.66,1.09,1.68,3,0,2.32,2.84,9.75,9.93,10s9.81-6.44,10.33-11.09c0,0-1.36-1.47-.08-1.9l0,0a9.86,9.86,0,0,1,1.89-.22,9.86,9.86,0,0,1,1.89.22l0,0c1.28.43-.08,1.9-.08,1.9.52,4.64,3.25,11.32,10.33,11.09s9.87-7.66,9.93-10a3.08,3.08,0,0,1,1.66-2.95s.13-1,.15-1.88c0-.57-.05-1.71-.05-1.71C58,35.73,55.59,35.41,54.81,35.19ZM22.21,51.39a7.92,7.92,0,1,1,7.92-7.92A7.92,7.92,0,0,1,22.21,51.39Zm23.91,0a7.92,7.92,0,1,1,7.92-7.92A7.92,7.92,0,0,1,46.13,51.39Z"/><path class="cls-2" d="M12.81,52.28a29,29,0,0,0,21,10.49c12.85.53,19.32-4.33,19.32-4.33l1.08.92S46.39,65.53,33.12,64C20.49,62.51,16.8,57.79,12.81,52.28Z"/></svg>